<?xml version="1.0" encoding="UTF-8" standalone="no"?>
<!-- Created with Inkscape (http://www.inkscape.org/) -->

<svg
   width="700"
   height="700"
   viewBox="0 0 700 700"
   version="1.1"
   id="svg1"
   xmlns="http://www.w3.org/2000/svg"
   xmlns:svg="http://www.w3.org/2000/svg">
  <defs
     id="defs1" />
  <g
     id="layer1"
     transform="translate(159.57333,-366.40832)">
    <g
       id="g4"
       transform="translate(-184.97015,330.85279)">
      <rect
         style="opacity:1;fill:#ffffff;stroke-width:1.15178"
         id="rect1"
         width="700"
         height="700"
         x="25.396826"
         y="35.555557" />
      <path
         id="text1"
         style="font-size:327.166px;font-family:'Agency FB';-inkscape-font-specification:'Agency FB, Normal';text-align:center;text-anchor:middle;stroke-width:1.81234"
         d="m 609.7491,260.2329 -44.57032,250.00781 v 0.63867 h 21.40625 l 8.78711,-55.59375 h 49.68164 l 8.78516,55.59375 h 22.04492 l -44.25,-250.64648 z M 74.909251,260.87157 V 510.87938 H 97.11433 V 411.6743 h 58.94727 c 5.21846,0 9.47782,-1.64969 12.77929,-4.95117 3.40798,-3.40798 5.11328,-7.72099 5.11328,-12.93945 V 278.60399 c 0,-5.21846 -1.7053,-9.47782 -5.11328,-12.7793 -3.30147,-3.30147 -7.56083,-4.95312 -12.77929,-4.95312 z m 151.921879,0 c -5.21847,0 -9.47978,1.65165 -12.78125,4.95312 -3.30148,3.30148 -4.95118,7.56084 -4.95118,12.7793 v 214.54297 c 0,5.21846 1.6497,9.47782 4.95118,12.7793 3.30147,3.30147 7.56278,4.95312 12.78125,4.95312 h 69.96875 c 5.21846,0 9.47977,-1.65165 12.78125,-4.95312 3.40797,-3.30148 5.11132,-7.56084 5.11132,-12.7793 V 278.60399 c 0,-5.21846 -1.70335,-9.47782 -5.11132,-12.7793 -3.30148,-3.30147 -7.56279,-4.95312 -12.78125,-4.95312 z m 127.79882,0 V 510.87938 H 434.503 V 491.22899 H 376.83503 V 260.87157 Z m 110.22657,0 v 250.00781 h 79.875 V 491.22899 H 487.0616 V 260.87157 Z M 97.11433,280.52001 h 54.63477 v 111.3457 H 97.11433 V 375.3286 h 31.28711 V 360.06297 H 97.11433 v -18.85546 h 43.85742 V 325.94188 H 97.11433 v -15.26367 h 28.59375 V 294.5161 H 97.11433 Z m 134.18945,0 h 61.1836 v 210.70898 h -61.1836 z m 388.98828,19.65039 21.88477,135.46679 h -43.92969 z" />
    </g>
  </g>
</svg>
